<svg id="圖層_1" data-name="圖層 1" xmlns="http://www.w3.org/2000/svg" xmlns:xlink="http://www.w3.org/1999/xlink" viewBox="0 0 91.17 23.18"><defs><style>.cls-1{fill:none;}.cls-2{isolation:isolate;}.cls-3{fill:#1b1464;}.cls-4{fill:#2e3192;}.cls-5{clip-path:url(#clip-path);}.cls-6{fill:#fff;}</style><clipPath id="clip-path" transform="translate(0 0)"><polygon class="cls-1" points="11.59 1.57 14.97 4.95 13.34 6.58 16.6 9.85 18.23 8.22 21.61 11.59 18.23 14.98 16.6 13.34 13.34 16.61 14.97 18.24 11.59 21.62 8.21 18.24 9.84 16.61 6.58 13.34 4.95 14.98 1.57 11.59 4.95 8.22 6.58 9.85 9.84 6.58 8.21 4.95 11.59 1.57"/></clipPath></defs><title>knots logo20210730-1</title><g class="cls-2"><path class="cls-3" d="M27.28,14.45h1.37v2.44l3.24-2.44h2L30,17.21l4.35,3.09H32.15l-3.5-2.57V20.3H27.28Z" transform="translate(0 0)"/><path class="cls-3" d="M35.85,15.5h.8l4.07,3.19V15.5h1.06v4.8H41l-4-3.23V20.3H35.85Z" transform="translate(0 0)"/><path class="cls-3" d="M45.06,15.5h3.7c1,0,1.25.22,1.25,1.14v2.53c0,.9-.3,1.13-1.25,1.13h-3.7c-1,0-1.25-.23-1.25-1.13V16.64C43.81,15.72,44.12,15.5,45.06,15.5Zm3.78,3.88v-3H45v3Z" transform="translate(0 0)"/><path class="cls-3" d="M54.89,20.3H53.72V16.37H51.41V15.5h5.8v.87H54.89Z" transform="translate(0 0)"/><path class="cls-3" d="M59.86,16.37v1H63c1,0,1.25.22,1.25,1.13v.66c0,.89-.29,1.13-1.25,1.13H59.86c-1,0-1.26-.24-1.26-1.13V19l1-.19v.56h3.53V18.3H60.06c-.94,0-1.26-.22-1.26-1.13v-.53c0-.91.32-1.14,1.26-1.14h2.85c.88,0,1.25.21,1.25,1.05v.11l-1,.22v-.51Z" transform="translate(0 0)"/><path class="cls-3" d="M71.06,14.45h1.36V19.2h4.39v1.1H71.06Z" transform="translate(0 0)"/><path class="cls-3" d="M81.23,20.3H80.06V16.37H77.75V15.5h5.81v.87H81.23Z" transform="translate(0 0)"/><path class="cls-3" d="M85.06,15.5H88.3c1.89,0,2.87.9,2.87,2.38,0,1.63-1.06,2.42-3.17,2.42H85.06Zm2.69,3.9c1.49,0,2.22-.32,2.22-1.57,0-1-.55-1.46-1.66-1.46H86.24v3Z" transform="translate(0 0)"/></g><polygon class="cls-4" points="11.59 1.57 14.97 4.95 13.34 6.58 16.61 9.85 18.24 8.21 21.62 11.59 18.24 14.97 16.61 13.34 13.34 16.61 14.97 18.24 11.59 21.62 8.21 18.24 9.85 16.61 6.58 13.34 4.95 14.97 1.57 11.59 4.95 8.21 6.58 9.85 9.85 6.58 8.21 4.95 11.59 1.57"/><g class="cls-5"><rect class="cls-4" x="4.51" y="4.5" width="14.17" height="14.17" transform="translate(-4.8 11.59) rotate(-45)"/></g><rect class="cls-4" x="20.45" y="6.36" width="1.22" height="4.79" transform="translate(-0.03 17.46) rotate(-45)"/><rect class="cls-4" x="13.81" y="-0.26" width="1.22" height="4.79" transform="translate(2.72 10.82) rotate(-45)"/><rect class="cls-4" x="12.04" y="20.45" width="4.79" height="1.22" transform="translate(-10.67 16.37) rotate(-45)"/><rect class="cls-4" x="18.67" y="13.82" width="4.79" height="1.22" transform="translate(-4.03 19.12) rotate(-45)"/><rect class="cls-4" x="-0.27" y="8.15" width="4.79" height="1.22" transform="translate(-5.57 4.07) rotate(-45)"/><rect class="cls-4" x="6.36" y="1.52" width="4.79" height="1.22" transform="translate(1.06 6.81) rotate(-45)"/><rect class="cls-4" x="8.15" y="18.66" width="1.22" height="4.79" transform="translate(-12.33 12.36) rotate(-45)"/><rect class="cls-4" x="1.52" y="12.04" width="1.22" height="4.79" transform="translate(-9.58 5.73) rotate(-45)"/><rect class="cls-6" x="9.31" y="9.3" width="4.59" height="4.59" transform="translate(-4.8 11.6) rotate(-45)"/><g class="cls-2"><path class="cls-3" d="M37.75,7.1h-2.4V6.48h.91c-.09-.19-.18-.38-.27-.55l.68-.23c.14.3.25.56.34.78h.74Zm-.07,1.19H35.54V7.67h2.14Zm0,1.18H35.54V8.84h2.14Zm0,3.1H37v-.32h-.77v.48h-.69V10H37.7Zm-.68-1v-1h-.77v1ZM42.33,9H40a9.33,9.33,0,0,1-.45.83H42v2.85h-.69v-.43H39.48v.43h-.7V10.89c-.21.22-.38.39-.5.49l-.48-.51A6.42,6.42,0,0,0,39.21,9H38V8.39H39.5a8.09,8.09,0,0,0,.29-1l.66.15a7.34,7.34,0,0,1-.23.8h2.11ZM40,7.06h-.57v.65h-.68V7.06H38v-.6h.74v-.7h.68v.7H40Zm1.28,4.58V10.51H39.48v1.13Zm1-4.58h-.69V7.7H41V7.06h-.58v-.6H41v-.7h.68v.7h.69Z" transform="translate(0 0)"/><path class="cls-3" d="M45.83,9.35a8.45,8.45,0,0,1-2,2.78l-.55-.52A8,8,0,0,0,45.18,9.1Zm4.49-.88h-3.1v4.27h-.75V8.47H43.36v-.7h7Zm-.8-1.82H44.19V5.94h5.33Zm.91,5.08-.6.39a18.79,18.79,0,0,0-2-2.74L48.5,9A18.14,18.14,0,0,1,50.43,11.73Z" transform="translate(0 0)"/><path class="cls-3" d="M58.32,7.19H54.43a4.72,4.72,0,0,1-.41.68h3.75v4.29a.56.56,0,0,1-.14.41.58.58,0,0,1-.43.15H55.89L55.58,12c.34,0,.77,0,1.3,0,.11,0,.17-.06.17-.18v-.73H53.48a3.94,3.94,0,0,1-.83,1.61L52,12.35a2.71,2.71,0,0,0,.86-1.77V9.29a5.81,5.81,0,0,1-1,.89l-.52-.55a7.62,7.62,0,0,0,2.32-2.44H51.36v-.7H54a4.87,4.87,0,0,0,.37-.79l.74.12a5.71,5.71,0,0,1-.28.67h3.53Zm-1.27,2V8.55H53.56v.64Zm0,1.27V9.83H53.56v.63Z" transform="translate(0 0)"/><path class="cls-3" d="M61.34,8.19A3.26,3.26,0,0,1,62,10a1,1,0,0,1-1.1,1.12h-.25l-.2-.71a1.86,1.86,0,0,0,.36,0,.69.69,0,0,0,.38-.08c.07,0,.1-.16.1-.32a2.92,2.92,0,0,0-.71-1.78c.15-.37.33-.93.55-1.66h-.88v6.14h-.69V5.88h2.31V6.6C61.7,7.18,61.52,7.71,61.34,8.19Zm4.59,1.05H63.07v2.57a9.37,9.37,0,0,0,1.17-.46l0,.74a12.07,12.07,0,0,1-1.81.65l-.25-.6a.35.35,0,0,0,.15-.31V5.9h3.56Zm-.71-2V6.54H63.07v.72Zm0,1.34V7.89H63.07V8.6Zm1.16,3.6-.41.59a4.85,4.85,0,0,1-2.23-3l.64-.2a4.54,4.54,0,0,0,.36.91,5.63,5.63,0,0,0,1-1l.52.47a7,7,0,0,1-1.16,1.12A4.45,4.45,0,0,0,66.38,12.2Z" transform="translate(0 0)"/><path class="cls-3" d="M70.32,6a8.07,8.07,0,0,1-2.57,3.55L67.3,8.9a6.73,6.73,0,0,0,2.31-3.19Zm3.57,6.39-.64.44a7.52,7.52,0,0,0-.45-.9c-1.23.29-2.74.55-4.52.79l-.2-.61q1-.73,2.4-4.07l.73.22a17.49,17.49,0,0,1-2,3.63,25.22,25.22,0,0,0,3.23-.57,14.44,14.44,0,0,0-.83-1.21l.59-.38A14.58,14.58,0,0,1,73.89,12.35Zm.52-3.42L74,9.56A6.24,6.24,0,0,1,71.77,6.5h-.65V5.82h1.16A5.65,5.65,0,0,0,74.41,8.93Z" transform="translate(0 0)"/><path class="cls-3" d="M82.08,11.8a.82.82,0,0,1-.91.94l-1.18,0L79.78,12,81,12c.23,0,.34-.07.34-.2V6.55h-6V5.9h6.7ZM80.7,7.89H75.54V7.24H80.7Zm-.51,3.44H76V8.63h4.18Zm-.72-.66V9.29H76.72v1.38Z" transform="translate(0 0)"/></g></svg>