<?xml version="1.0" encoding="UTF-8" standalone="no"?>
<!DOCTYPE svg PUBLIC "-//W3C//DTD SVG 1.1//EN" "http://www.w3.org/Graphics/SVG/1.1/DTD/svg11.dtd">
<svg width="100%" height="100%" viewBox="0 0 70 70" version="1.1" xmlns="http://www.w3.org/2000/svg" xmlns:xlink="http://www.w3.org/1999/xlink" xml:space="preserve" xmlns:serif="http://www.serif.com/" style="fill-rule:evenodd;clip-rule:evenodd;stroke-linejoin:round;stroke-miterlimit:1.41421;">
    <g transform="matrix(1,0,0,1,-47,-902)">
        <g transform="matrix(1,0,0,1,-1.81899e-12,-1090.05)">
            <g transform="matrix(2.94,0,0,2.94,8.42686,-553.168)">
                <path d="M33.023,875.114C33.023,874.825 32.93,874.587 32.744,874.401L31.334,873.006C31.137,872.81 30.905,872.711 30.636,872.711C30.368,872.711 30.135,872.81 29.939,873.006L23.614,879.315L20.111,875.812C19.915,875.615 19.682,875.517 19.414,875.517C19.145,875.517 18.912,875.615 18.716,875.812L17.305,877.207C17.119,877.393 17.026,877.63 17.026,877.92C17.026,878.199 17.119,878.431 17.305,878.617L22.917,884.229C23.113,884.425 23.346,884.523 23.614,884.523C23.893,884.523 24.131,884.425 24.327,884.229L32.744,875.812C32.93,875.626 33.023,875.393 33.023,875.114ZM36.93,877.625C36.93,879.785 36.397,881.777 35.333,883.601C34.269,885.425 32.824,886.869 31.001,887.933C29.177,888.998 27.185,889.53 25.025,889.53C22.865,889.53 20.873,888.998 19.049,887.933C17.225,886.869 15.781,885.425 14.717,883.601C13.652,881.777 13.12,879.785 13.12,877.625C13.12,875.465 13.652,873.474 14.717,871.65C15.781,869.826 17.225,868.382 19.049,867.317C20.873,866.253 22.865,865.721 25.025,865.721C27.185,865.721 29.177,866.253 31.001,867.317C32.824,868.382 34.269,869.826 35.333,871.65C36.397,873.474 36.93,875.465 36.93,877.625Z" style="fill:rgb(77,179,88);fill-rule:nonzero;"/>
            </g>
        </g>
    </g>
</svg>
